<?xml version="1.0" encoding="utf-8"?>
<!-- Generator: Adobe Illustrator 16.0.0, SVG Export Plug-In . SVG Version: 6.00 Build 0)  -->
<!DOCTYPE svg PUBLIC "-//W3C//DTD SVG 1.1//EN" "http://www.w3.org/Graphics/SVG/1.1/DTD/svg11.dtd">
<svg version="1.1" id="Layer_1" xmlns="http://www.w3.org/2000/svg" xmlns:xlink="http://www.w3.org/1999/xlink" x="0px" y="0px"
	 width="72px" height="72px" viewBox="0 0 72 72" enable-background="new 0 0 72 72" xml:space="preserve">
<g>
	<path d="M42.834,8.625c-10.745,0-20.313,6.201-24.724,15.907c-4.551,0.567-8.148,4.258-8.569,8.854C4.925,36.292,2,41.574,2,47.166
		c0,8.938,7.178,16.209,16,16.209h25c0.203,0,0.568-0.035,0.952-0.238C58.384,62.543,70,50.432,70,35.791
		C70,20.812,57.813,8.625,42.834,8.625z M43.168,59.159c-0.195,0-0.545,0.03-0.912,0.217H18c-6.617,0-12-5.478-12-12.209
		c0-4.534,2.528-8.788,6.443-10.839c0.679-0.357,1.094-1.07,1.07-1.837l-0.013-0.2c0-3.217,2.617-5.834,5.751-5.836
		c0.035,0.002,0.129,0.008,0.164,0.008c0.814,0.031,1.592-0.482,1.903-1.257c3.538-8.857,11.984-14.581,21.516-14.581
		C55.607,12.625,66,23.018,66,35.791C66,48.51,55.746,58.993,43.168,59.159z"/>
	<path d="M61.741,32.34c-0.058-0.549-0.544-0.935-1.101-0.872c-0.549,0.059-0.947,0.586-0.89,1.135
		c0.054,0.51,0.082,1.106,0.083,1.631c0.001,0.552,0.448,1.141,1,1.141c0,0,0.001,0,0.003-0.001c0.552,0,0.999-0.583,0.998-1.136
		C61.834,33.645,61.803,32.917,61.741,32.34z"/>
	<path d="M59.782,26.065c-2.937-5.352-8.55-8.677-14.649-8.677c-0.553,0-1,0.447-1,1c0,0.553,0.447,1,1,1
		c5.369,0,10.311,2.927,12.896,7.64c0.182,0.331,0.523,0.519,0.878,0.519c0.161,0,0.327-0.04,0.479-0.124
		C59.871,27.158,60.049,26.549,59.782,26.065z"/>
</g>
</svg>
