<?xml version="1.0" encoding="utf-8"?>
<!-- Generator: Adobe Illustrator 16.0.0, SVG Export Plug-In . SVG Version: 6.00 Build 0)  -->
<!DOCTYPE svg PUBLIC "-//W3C//DTD SVG 1.1//EN" "http://www.w3.org/Graphics/SVG/1.1/DTD/svg11.dtd">
<svg version="1.1" id="Layer_1" xmlns="http://www.w3.org/2000/svg" xmlns:xlink="http://www.w3.org/1999/xlink" x="0px" y="0px"
	 width="72px" height="72px" viewBox="0 0 72 72" enable-background="new 0 0 72 72" xml:space="preserve">
<g>
	<path d="M15.881,17.653V5c0-1.104-0.896-2-2-2s-2,0.896-2,2v12.504c-4.896,0.78-8.652,5.02-8.652,10.132
		c0,5.111,3.756,9.349,8.652,10.129V67c0,1.104,0.896,2,2,2s2-0.896,2-2V37.616c4.518-1.078,7.89-5.138,7.89-9.981
		C23.771,22.792,20.398,18.731,15.881,17.653z M13.5,33.906c-3.458,0-6.271-2.813-6.271-6.271s2.813-6.271,6.271-6.271
		s6.271,2.813,6.271,6.271S16.958,33.906,13.5,33.906z"/>
	<path d="M15.552,23.308l-0.278-0.055c-0.543-0.107-1.068,0.247-1.174,0.789c-0.107,0.541,0.247,1.068,0.789,1.174l0.278,0.055
		c0.064,0.013,0.13,0.019,0.193,0.019c0.469,0,0.887-0.33,0.981-0.808C16.448,23.941,16.094,23.414,15.552,23.308z"/>
	<path d="M11.802,23.923c-1.684,0.967-2.731,2.774-2.731,4.713c0,0.553,0.447,1,1,1c0.553,0,1-0.448,0.999-1
		c0-1.226,0.663-2.368,1.728-2.979c0.478-0.274,0.644-0.886,0.369-1.365C12.893,23.813,12.281,23.649,11.802,23.923z"/>
	<path d="M37.881,35.653V5c0-1.104-0.896-2-2-2c-1.104,0-2,0.896-2,2v30.504c-4.896,0.78-8.652,5.02-8.652,10.132
		c0,5.111,3.756,9.349,8.652,10.129V67c0,1.104,0.896,2,2,2c1.104,0,2-0.896,2-2V55.616c4.518-1.078,7.891-5.138,7.891-9.981
		S42.398,36.731,37.881,35.653z M35.5,51.906c-3.458,0-6.271-2.813-6.271-6.271c0-3.457,2.813-6.271,6.271-6.271
		s6.271,2.814,6.271,6.271C41.771,49.094,38.958,51.906,35.5,51.906z"/>
	<path d="M37.552,41.309l-0.278-0.056c-0.541-0.108-1.067,0.246-1.173,0.789c-0.107,0.541,0.247,1.067,0.789,1.174l0.278,0.056
		c0.063,0.013,0.13,0.019,0.192,0.019c0.47,0,0.888-0.33,0.981-0.808C38.448,41.941,38.094,41.414,37.552,41.309z"/>
	<path d="M33.802,41.923c-1.684,0.968-2.731,2.774-2.731,4.714c0,0.553,0.447,1,1,1c0.553,0,1-0.449,0.999-1
		c0-1.227,0.663-2.369,1.728-2.98c0.478-0.273,0.644-0.885,0.369-1.364C34.893,41.813,34.282,41.648,33.802,41.923z"/>
	<path d="M68.771,20.635c0-4.843-3.373-8.904-7.891-9.982V5c0-1.104-0.896-2-2-2s-2,0.896-2,2v5.504
		c-4.896,0.78-8.652,5.02-8.652,10.132c0,5.111,3.757,9.35,8.652,10.13V67c0,1.104,0.896,2,2,2s2-0.896,2-2V30.617
		C65.398,29.539,68.771,25.478,68.771,20.635z M58.5,26.906c-3.458,0-6.271-2.813-6.271-6.271s2.813-6.271,6.271-6.271
		s6.271,2.813,6.271,6.271S61.958,26.906,58.5,26.906z"/>
	<path d="M60.552,16.308l-0.278-0.055c-0.541-0.107-1.067,0.247-1.174,0.789c-0.106,0.541,0.248,1.068,0.789,1.174l0.278,0.055
		c0.063,0.013,0.13,0.019,0.192,0.019c0.47,0,0.888-0.33,0.981-0.808C61.448,16.941,61.094,16.414,60.552,16.308z"/>
	<path d="M56.802,16.923c-1.684,0.967-2.731,2.774-2.731,4.713c0,0.553,0.447,1,1,1c0.554,0,1-0.448,1-1
		c0-1.226,0.662-2.368,1.728-2.979c0.478-0.274,0.644-0.886,0.369-1.365C57.893,16.814,57.281,16.65,56.802,16.923z"/>
</g>
</svg>
