<?xml version="1.0" encoding="utf-8"?>
<!-- Generator: Adobe Illustrator 16.0.0, SVG Export Plug-In . SVG Version: 6.00 Build 0)  -->
<!DOCTYPE svg PUBLIC "-//W3C//DTD SVG 1.1//EN" "http://www.w3.org/Graphics/SVG/1.1/DTD/svg11.dtd">
<svg version="1.1" id="Layer_1" xmlns="http://www.w3.org/2000/svg" xmlns:xlink="http://www.w3.org/1999/xlink" x="0px" y="0px"
	 width="72px" height="72px" viewBox="0 0 72 72" enable-background="new 0 0 72 72" xml:space="preserve">
<g>
	<path d="M64.557,11.542l-4.814-4.779c-2.469-2.468-4.217-3.742-6.344-3.742c-0.02,0-0.037,0-0.057,0
		c-2.322,0-4.251,1.704-6.354,3.808l-8.392,8.332l-0.714-0.714c-0.379-0.379-0.849-0.594-1.432-0.586
		c-0.537,0.005-1.049,0.225-1.422,0.611L7.576,42.926c-2.119,2.119-4.045,4.467-3.794,7.281c0.208,2.33,1.768,4.305,4.392,6.928
		l7.777,7.777c2.637,2.638,4.492,4.068,6.74,4.068c2.47,0,4.543-1.873,6.83-4.16L57,36.342c0.757-0.785,0.746-2.032-0.025-2.803
		l-1.144-1.144l8.394-8.386C69.188,19.045,69.834,16.821,64.557,11.542z M26.668,62.016c-1.465,1.465-3.083,2.963-3.977,2.963
		c-0.895,0-2.48-1.463-3.912-2.896l-7.777-7.776c-1.618-1.619-3.131-3.279-3.235-4.455c-0.083-0.927,0.73-2.191,2.663-4.123
		l26.064-27.015l16.263,16.262L26.668,62.016z M52.998,29.563L41.437,18l8.38-8.347c0.805-0.806,2.689-2.632,3.57-2.632
		c0.002,0,0.004,0,0.006,0c0.781,0,2.293,1.341,3.521,2.57l4.814,4.746c0.631,0.632,2.553,2.554,2.506,3.289
		c-0.047,0.745-1.795,2.493-2.838,3.538L52.998,29.563z"/>
	<path d="M45.754,17.887c-0.191,0.19-0.3,0.45-0.3,0.71c0,0.271,0.108,0.53,0.29,0.71c0.189,0.19,0.449,0.29,0.71,0.29
		c0.271,0,0.521-0.1,0.71-0.29c0.189-0.189,0.29-0.439,0.29-0.71c0-0.26-0.101-0.52-0.29-0.71
		C46.784,17.517,46.113,17.527,45.754,17.887z"/>
	<path d="M49.195,16.86c0.257,0,0.513-0.097,0.707-0.293l4.951-4.949c0.391-0.391,0.391-1.023,0-1.414
		c-0.392-0.391-1.023-0.391-1.414,0l-4.951,4.949c-0.391,0.391-0.391,1.023,0,1.414C48.684,16.762,48.939,16.86,49.195,16.86z"/>
	<path d="M57.682,13.033c-0.392-0.391-1.023-0.391-1.414,0l-7.779,7.778c-0.391,0.391-0.391,1.023,0,1.414
		c0.195,0.195,0.451,0.293,0.707,0.293c0.257,0,0.513-0.098,0.707-0.293l7.779-7.778C58.072,14.056,58.072,13.424,57.682,13.033z"/>
	<path d="M59.096,15.861l-7.777,7.778c-0.392,0.391-0.392,1.023,0,1.414c0.195,0.195,0.451,0.293,0.707,0.293
		s0.512-0.098,0.707-0.293l7.776-7.778c0.392-0.391,0.392-1.023,0-1.414C60.118,15.47,59.486,15.47,59.096,15.861z"/>
</g>
</svg>
