<?xml version="1.0" encoding="utf-8"?>
<!-- Generator: Adobe Illustrator 16.0.0, SVG Export Plug-In . SVG Version: 6.00 Build 0)  -->
<!DOCTYPE svg PUBLIC "-//W3C//DTD SVG 1.1//EN" "http://www.w3.org/Graphics/SVG/1.1/DTD/svg11.dtd">
<svg version="1.1" id="Layer_1" xmlns="http://www.w3.org/2000/svg" xmlns:xlink="http://www.w3.org/1999/xlink" x="0px" y="0px"
	 width="72px" height="72px" viewBox="0 0 72 72" enable-background="new 0 0 72 72" xml:space="preserve">
<g>
	<g>
		<path d="M14.155,69.405L14.155,69.405c-0.781,0-1.479-0.363-1.915-0.994c-0.779-1.129-0.32-2.521-0.108-3.09l6.513-24.098
			c0.018-0.066,0.039-0.131,0.063-0.193c0.01-0.025,0.018-0.049,0.023-0.07c-0.01,0-0.02,0-0.031,0h-3.912
			c-1.488,0-2.715-0.633-3.364-1.736c-0.655-1.113-0.609-2.512,0.125-3.836L27.741,6.228c1.145-2.069,3.779-3.632,6.127-3.632
			h23.543c1.559,0,2.772,0.657,3.329,1.805c0.56,1.153,0.32,2.526-0.656,3.767L43.359,29.491h7.142c2.352,0,3.081,1.308,3.285,1.869
			c0.203,0.56,0.481,2.017-1.287,3.526L16.603,68.284c-0.024,0.023-0.05,0.047-0.076,0.068
			C15.672,69.069,14.918,69.405,14.155,69.405z M22.482,42.354l-5.415,20.035l31.06-28.898h-5.944c-1.559,0-2.772-0.657-3.329-1.803
			c-0.561-1.153-0.321-2.527,0.655-3.77L56.233,6.596H33.868c-0.888,0-2.19,0.778-2.629,1.57L15.25,36.959H18.7
			c1.431,0,2.671,0.609,3.401,1.672C22.82,39.676,22.957,41.028,22.482,42.354z"/>
	</g>
	<g>
		<g>
			<path d="M26.485,26.507c-0.164,0-0.33-0.04-0.484-0.126c-0.482-0.268-0.657-0.877-0.389-1.359l0.896-1.614
				c0.268-0.482,0.877-0.659,1.359-0.389c0.483,0.268,0.657,0.877,0.389,1.359l-0.896,1.614
				C27.177,26.321,26.836,26.507,26.485,26.507z M29.308,21.422c-0.164,0-0.33-0.04-0.484-0.126
				c-0.482-0.268-0.657-0.877-0.389-1.359l4.234-7.625c0.867-1.566,2.936-2.795,4.711-2.795h2.615c0.553,0,1,0.447,1,1s-0.447,1-1,1
				h-2.615c-1.059,0-2.442,0.824-2.963,1.765l-4.234,7.626C30,21.236,29.66,21.422,29.308,21.422z"/>
		</g>
	</g>
</g>
</svg>
