<?xml version="1.0" encoding="utf-8"?>
<!-- Generator: Adobe Illustrator 16.0.0, SVG Export Plug-In . SVG Version: 6.00 Build 0)  -->
<!DOCTYPE svg PUBLIC "-//W3C//DTD SVG 1.1//EN" "http://www.w3.org/Graphics/SVG/1.1/DTD/svg11.dtd">
<svg version="1.1" id="Layer_1" xmlns="http://www.w3.org/2000/svg" xmlns:xlink="http://www.w3.org/1999/xlink" x="0px" y="0px"
	 width="72px" height="72px" viewBox="0 0 72 72" enable-background="new 0 0 72 72" xml:space="preserve">
<g>
	<g>
		<g>
			<path d="M49.83,56.5H22.17c-3.927,0-5.965-2.426-5.965-5.899V22.94c0-3.513,2.147-7.44,5.965-7.44h27.66
				c3.817,0,7.375,3.928,7.375,7.44v27.66C57.205,54.074,53.757,56.5,49.83,56.5z M22.17,19.5c-1.298,0-1.965,1.769-1.965,3.44
				v27.66c0,1.652,0.968,1.899,1.965,1.899h27.66c0.997,0,3.375-0.247,3.375-1.899V22.94c0-1.672-2.077-3.44-3.375-3.44H22.17z"/>
		</g>
		<g>
			<g>
				<path d="M37.5,24.5h-1c-0.553,0-1-0.447-1-1s0.447-1,1-1h1c0.553,0,1,0.447,1,1S38.053,24.5,37.5,24.5z"/>
			</g>
			<g>
				<path d="M23.205,32.5c-0.553,0-1-0.447-1-1v-2.325c0-3.281-0.705-6.675,4.857-6.675H32.5c0.553,0,1,0.447,1,1s-0.447,1-1,1
					h-5.438c-3.563,0-2.857,1.178-2.857,4.675V31.5C24.205,32.053,23.758,32.5,23.205,32.5z"/>
			</g>
		</g>
	</g>
	<g>
		<g>
			<path d="M67.5,23.5h-5c-1.104,0-2-0.896-2-2s0.896-2,2-2h5c1.104,0,2,0.896,2,2S68.604,23.5,67.5,23.5z"/>
		</g>
		<g>
			<path d="M67.5,34.5h-5c-1.104,0-2-0.896-2-2s0.896-2,2-2h5c1.104,0,2,0.896,2,2S68.604,34.5,67.5,34.5z"/>
		</g>
		<g>
			<path d="M67.5,44.5h-5c-1.104,0-2-0.896-2-2s0.896-2,2-2h5c1.104,0,2,0.896,2,2S68.604,44.5,67.5,44.5z"/>
		</g>
		<g>
			<path d="M67.5,53.5h-5c-1.104,0-2-0.896-2-2s0.896-2,2-2h5c1.104,0,2,0.896,2,2S68.604,53.5,67.5,53.5z"/>
		</g>
	</g>
	<g>
		<g>
			<path d="M21.205,12.5c-1.104,0-2-0.896-2-2v-5c0-1.104,0.896-2,2-2s2,0.896,2,2v5C23.205,11.604,22.31,12.5,21.205,12.5z"/>
		</g>
		<g>
			<path d="M31.205,12.5c-1.104,0-2-0.896-2-2v-5c0-1.104,0.896-2,2-2s2,0.896,2,2v5C33.205,11.604,32.31,12.5,31.205,12.5z"/>
		</g>
		<g>
			<path d="M42.205,12.5c-1.104,0-2-0.896-2-2v-5c0-1.104,0.896-2,2-2s2,0.896,2,2v5C44.205,11.604,43.31,12.5,42.205,12.5z"/>
		</g>
		<g>
			<path d="M51.205,12.5c-1.104,0-2-0.896-2-2v-5c0-1.104,0.896-2,2-2s2,0.896,2,2v5C53.205,11.604,52.31,12.5,51.205,12.5z"/>
		</g>
	</g>
	<g>
		<g>
			<path d="M21.205,68.5c-1.104,0-2-0.896-2-2v-5c0-1.104,0.896-2,2-2s2,0.896,2,2v5C23.205,67.604,22.31,68.5,21.205,68.5z"/>
		</g>
		<g>
			<path d="M31.205,68.5c-1.104,0-2-0.896-2-2v-5c0-1.104,0.896-2,2-2s2,0.896,2,2v5C33.205,67.604,32.31,68.5,31.205,68.5z"/>
		</g>
		<g>
			<path d="M42.205,68.5c-1.104,0-2-0.896-2-2v-5c0-1.104,0.896-2,2-2s2,0.896,2,2v5C44.205,67.604,43.31,68.5,42.205,68.5z"/>
		</g>
		<g>
			<path d="M51.205,68.5c-1.104,0-2-0.896-2-2v-5c0-1.104,0.896-2,2-2s2,0.896,2,2v5C53.205,67.604,52.31,68.5,51.205,68.5z"/>
		</g>
	</g>
	<g>
		<g>
			<path d="M9.5,23.5h-5c-1.104,0-2-0.896-2-2s0.896-2,2-2h5c1.104,0,2,0.896,2,2S10.604,23.5,9.5,23.5z"/>
		</g>
		<g>
			<path d="M9.5,34.5h-5c-1.104,0-2-0.896-2-2s0.896-2,2-2h5c1.104,0,2,0.896,2,2S10.604,34.5,9.5,34.5z"/>
		</g>
		<g>
			<path d="M9.5,44.5h-5c-1.104,0-2-0.896-2-2s0.896-2,2-2h5c1.104,0,2,0.896,2,2S10.604,44.5,9.5,44.5z"/>
		</g>
		<g>
			<path d="M9.5,53.5h-5c-1.104,0-2-0.896-2-2s0.896-2,2-2h5c1.104,0,2,0.896,2,2S10.604,53.5,9.5,53.5z"/>
		</g>
	</g>
</g>
</svg>
