<?xml version="1.0" encoding="utf-8"?>
<!-- Generator: Adobe Illustrator 16.0.0, SVG Export Plug-In . SVG Version: 6.00 Build 0)  -->
<!DOCTYPE svg PUBLIC "-//W3C//DTD SVG 1.1//EN" "http://www.w3.org/Graphics/SVG/1.1/DTD/svg11.dtd">
<svg version="1.1" id="Layer_1" xmlns="http://www.w3.org/2000/svg" xmlns:xlink="http://www.w3.org/1999/xlink" x="0px" y="0px"
	 width="72px" height="72px" viewBox="0 0 72 72" enable-background="new 0 0 72 72" xml:space="preserve">
<g>
	<path d="M60.999,9.506c-5.233,0-9.493,4.26-9.493,9.495c0,3.646,2.07,6.815,5.095,8.404l-4.95,14.254
		c-0.537-0.095-1.087-0.153-1.651-0.153c-1.456,0-2.831,0.34-4.065,0.928l-11.246-11.62c0.515-1.168,0.806-2.457,0.806-3.813
		c0-5.235-4.259-9.495-9.495-9.495c-5.234,0-9.493,4.26-9.493,9.495c0,2.931,1.337,5.555,3.431,7.298l-4.766,10.186
		c-1.261-0.62-2.674-0.979-4.172-0.979c-5.234,0-9.493,4.26-9.493,9.495c0,5.233,4.259,9.493,9.493,9.493
		c5.236,0,9.495-4.26,9.495-9.493c0-2.253-0.792-4.321-2.107-5.951l5.102-10.904c0.801,0.221,1.641,0.348,2.511,0.348
		c2.416,0,4.616-0.914,6.293-2.404l10.452,10.801c-1.394,1.653-2.238,3.784-2.238,6.11c0,5.233,4.26,9.493,9.493,9.493
		c5.235,0,9.495-4.26,9.495-9.493c0-3.248-1.641-6.117-4.136-7.83l5.108-14.704c0.177,0.01,0.353,0.027,0.532,0.027
		c5.235,0,9.495-4.259,9.495-9.493C70.494,13.766,66.234,9.506,60.999,9.506z M10.999,58.494c-3.029,0-5.493-2.465-5.493-5.493
		c0-3.03,2.464-5.495,5.493-5.495c3.03,0,5.495,2.465,5.495,5.495C16.494,56.029,14.029,58.494,10.999,58.494z M25.999,32.494
		c-3.029,0-5.493-2.464-5.493-5.493c0-3.03,2.464-5.495,5.493-5.495c3.03,0,5.495,2.465,5.495,5.495
		C31.494,30.03,29.029,32.494,25.999,32.494z M49.999,56.494c-3.028,0-5.493-2.465-5.493-5.493c0-3.03,2.465-5.495,5.493-5.495
		c3.03,0,5.495,2.465,5.495,5.495C55.494,54.029,53.029,56.494,49.999,56.494z M60.999,24.494c-3.028,0-5.493-2.464-5.493-5.493
		c0-3.03,2.465-5.495,5.493-5.495c3.03,0,5.495,2.465,5.495,5.495C66.494,22.03,64.029,24.494,60.999,24.494z"/>
	<path d="M61.999,15.038c-1.657,0-3.198,0.823-4.122,2.201c-0.309,0.459-0.186,1.08,0.273,1.388c0.17,0.114,0.365,0.169,0.556,0.169
		c0.321,0,0.64-0.155,0.832-0.444c0.552-0.823,1.472-1.314,2.461-1.314c0.554,0,1-0.447,1-1
		C62.999,15.485,62.553,15.038,61.999,15.038z"/>
</g>
</svg>
