<?xml version="1.0" encoding="utf-8"?>
<!-- Generator: Adobe Illustrator 16.0.0, SVG Export Plug-In . SVG Version: 6.00 Build 0)  -->
<!DOCTYPE svg PUBLIC "-//W3C//DTD SVG 1.1//EN" "http://www.w3.org/Graphics/SVG/1.1/DTD/svg11.dtd">
<svg version="1.1" id="Layer_1" xmlns="http://www.w3.org/2000/svg" xmlns:xlink="http://www.w3.org/1999/xlink" x="0px" y="0px"
	 width="72px" height="72px" viewBox="0 0 72 72" enable-background="new 0 0 72 72" xml:space="preserve">
<g>
	<path d="M36,3.518C18.089,3.518,3.518,18.089,3.518,36c0,17.91,14.571,32.482,32.482,32.482S68.482,53.91,68.482,36
		C68.482,18.089,53.911,3.518,36,3.518z M36,64.482C20.295,64.482,7.518,51.705,7.518,36S20.295,7.518,36,7.518
		S64.482,20.295,64.482,36S51.705,64.482,36,64.482z"/>
	<path d="M36,20.27c-8.614,0-15.626,6.963-15.721,15.556l-3.102,1.12c-0.718,0.26-1.227,0.857-1.36,1.6
		c-0.152,0.846,0.185,1.734,0.893,2.334l6.829,5.564c0.43,0.363,0.91,0.555,1.389,0.555c0.965,0,1.72-0.738,1.922-1.855l1.773-8.516
		c0.134-0.75-0.072-1.539-0.551-2.111c-0.581-0.695-1.509-0.957-2.346-0.656l-3.41,1.23c0.472-7.146,6.42-12.82,13.684-12.82
		c7.57,0,13.73,6.159,13.73,13.73c0,7.57-6.16,13.73-13.73,13.73c-0.553,0-1,0.447-1,1s0.447,1,1,1c8.674,0,15.73-7.057,15.73-15.73
		C51.73,27.327,44.673,20.27,36,20.27z M26.447,35.731c0.014,0,0.05,0.019,0.091,0.068c0.076,0.091,0.151,0.269,0.121,0.446
		l-1.773,8.515c-0.012,0.068-0.027,0.123-0.043,0.166c-0.008-0.007-0.018-0.015-0.028-0.023l-6.828-5.563
		c-0.16-0.136-0.222-0.323-0.201-0.44c0.006-0.035,0.008-0.051,0.071-0.072L26.447,35.731z"/>
	<path d="M42.646,11.739c-0.526-0.142-1.082,0.168-1.229,0.701c-0.146,0.534,0.168,1.083,0.701,1.229
		C52.145,16.41,59.148,25.593,59.148,36c0,0.553,0.447,1,1,1s1-0.447,1-1C61.148,24.694,53.54,14.718,42.646,11.739z"/>
	<path d="M36,12.851c0.433,0,0.863,0.012,1.293,0.035c0.02,0.002,0.037,0.002,0.057,0.002c0.526,0,0.967-0.413,0.996-0.945
		c0.03-0.552-0.392-1.024-0.943-1.053c-0.465-0.025-0.932-0.039-1.402-0.039c-0.553,0-1,0.447-1,1
		C35,12.404,35.447,12.851,36,12.851z"/>
</g>
</svg>
